<svg version="1.0" xmlns="http://www.w3.org/2000/svg" width="2666.67" height="2730.67" viewBox="0 0 2000 2048"><path d="M947.5 1c-111.6 5.9-212.9 27.9-314 68.2C463.3 136.9 313.9 252.6 202.3 403 97.7 544.1 31 710.2 8.6 886c-6.2 48-8 78.6-8 133 0 45.3.7 62.1 4 98 10.3 111.7 38.7 220.9 84.5 325 9.7 22.1 35.3 72.5 47.3 93.4 47.1 81.6 98 148 163.6 213.6 27.9 28 43 41.9 66.5 61.4 7.2 6 14.5 12.1 16.3 13.7 1.8 1.6 13 10.1 24.8 19 86.2 64.6 180.9 114.3 280.9 147.4 106.3 35.2 210.4 51 322.5 49.2 37.5-.7 49-1.3 83.5-4.8 140.7-14 276.8-59.4 401.5-133.7 93.9-55.9 183-132.3 254-217.7 87.4-105 152.4-224.7 192.7-355 7.2-23.5 18.4-66.6 23.7-91.5 8.2-38.3 16.8-97.5 19.1-131 1.9-27.2 2.6-42.3 3.2-68.3l.6-29.7h-26.5c-14.6 0-35.9.3-47.5.7l-21 .6-.7 26.1c-.4 14.4-1.1 32.7-1.6 40.7l-1 14.6-6.6 15.9c-46.9 112.8-112.7 214.5-198.7 307.3l-16.2 17.5-.7-17c-2.7-66.8-3.8-84.8-7.4-120.9-5.9-60.8-16.4-127.5-29-184.3l-4.5-20.2 20-21c84.9-89.2 152.1-181.6 205.6-282.7 3.8-7.2 7.1-13.1 7.2-12.9.7.6 8.8 34.2 12.2 50.6a989.5 989.5 0 0 1 20.4 169l.2 6.5 13.5-.3c66.5-1.6 81.1-2 81.3-2.3.2-.2 0-8.7-.4-18.9-4.8-117-29.7-234.4-72.9-342.6-15-37.5-36.4-82.9-54.5-115.4-111.1-199.9-279.3-352.8-485.2-441.1C1287 40.1 1190.7 15.2 1093.5 5c-38.1-3.9-109.9-5.9-146-4zm81.5 95c36.7 1.6 70.5 4.9 103 10.1 19.1 3 35 6.1 35 6.8 0 1.1-15.1 28.4-23.8 43.1-15.8 26.5-45.2 69-62.9 90.8-1.5 1.8-2.6 1.4-11.5-4.6-17.9-12-55-33.4-84.8-49-52.1-27.1-120.8-54.7-177-71l-13.4-3.9 7.4-1.7c72.1-16.5 153.8-23.8 228-20.6zm243.6 44.6c65.4 21.6 135.5 55.1 195.7 93.8 28 17.9 70.4 48.7 84.6 61.3l4.3 3.8-8.6 17.3c-40.3 80.4-98 166-155.2 230.1l-3.9 4.3-17.2-22.8c-62.2-82.9-134.6-158.7-206.8-216.4-4.4-3.5-8.3-6.6-8.7-7-.5-.3 3-5.5 7.7-11.5 33.8-43.5 67.6-97.2 91.6-145.8 3-5.9 5.4-10.7 5.5-10.7.1 0 5 1.6 11 3.6zm-571.1 53.5c101.6 20.3 199.4 58.2 290.5 112.6 9.6 5.7 18.6 11.2 19.9 12.2l2.3 1.8-17.3 16c-45.7 42.3-88.4 75.2-136.5 105-24.3 15.1-56 33-56.9 32.1-.4-.3-120.5-262.8-128.1-279.6l-2.4-5.4 4.3.7c2.3.3 13.2 2.4 24.2 4.6zm-46.1 185.1c33.3 73 60.6 133.1 60.6 133.6 0 1.9-38.9 15.1-68.5 23.2-36 9.9-73.3 17-109 20.9-19.8 2.2-49.4 4-50 3.1-.4-.6 6.3-33.4 10.5-52 15.2-67.7 40.4-144.1 68.7-208.5 10.7-24.5 25.5-54.7 26.3-53.8.4.5 28 60.5 61.4 133.5zM474.7 274.7c-33.9 79.1-61.5 170.5-78.6 260.6-2.1 10.9-4.1 20-4.4 20.3-1.1 1.2-44.1-6.8-65.7-12.2-12.4-3-31-8.4-41.5-11.9-18.9-6.3-41.3-14.9-42.8-16.4-1.9-1.9 43.3-65.3 66.9-93.6 33.4-40.2 74.5-81.9 112.9-114.6 19.4-16.5 57.5-46.2 58.4-45.4.1.2-2.2 6.1-5.2 13.2zm1187.4 126.5c50.3 57.1 97.9 127.7 131.7 195.4 8.8 17.7 21.2 44.6 21.2 46.1s-10.9 26.8-19.5 45.3c-47.5 102.4-115.1 204-191.2 287.2l-5.2 5.7-7.2-22.2c-35.6-110.4-84.8-219.8-140.6-312.4-4-6.7-7.3-12.4-7.3-12.8 0-.3 4.2-5.2 9.3-10.8C1517.7 552 1577 467.3 1624 378.6l6.4-12 8.9 9.5c4.9 5.1 15.1 16.5 22.8 25.1zm-558.7-17c78.3 63.7 146.8 136.7 207.1 220.8l11.8 16.4-6.4 5.9c-82.2 75.2-152.6 126.8-243.1 178-28.5 16.1-89 46.9-94.2 47.9-1.5.2-12.3-22.7-64.2-136.2-34.3-75.1-64.4-140.9-66.8-146.2l-4.4-9.7 16.6-8.9c60.2-32.2 122.7-75.7 178.1-124.1 15.1-13.2 51.5-47.8 53.4-50.9.4-.6 1.1-1.2 1.4-1.2.3 0 5.1 3.7 10.7 8.2zM206.5 604.1c15 6.3 46.2 17.6 62 22.4 29.7 9 70.4 18.1 98 22.1 6.6.9 12.1 1.7 12.3 1.9.1.1-.5 6.9-1.3 15.1-2.6 26.7-4.5 58.6-5.6 96.7-1.9 61.7 1.3 136.9 8.5 198.7.7 6.3 1.1 11.7.9 11.9-.2.3-9.6-.1-20.9-.7-79.9-4.8-160.2-18-236.3-38.8-12.9-3.6-23.7-6.7-24-6.9-.6-.7 2.6-28.7 6-51 12.2-81 36.4-164 69.9-239.5 6.8-15.5 17.3-37 17.9-37 .4 0 6.1 2.3 12.6 5.1zm616.1 141c36.2 79.3 66 144.5 66.2 144.9.8 2.2-72.2 26.5-113.8 37.9a1317.1 1317.1 0 0 1-242.5 42.6c-30.2 2.3-53.9 3.4-54.6 2.3-.6-.9-5.2-42.7-6.9-62.8-6.2-73.4-5.6-166.5 1.5-238 .8-8 1.5-14.8 1.5-15.1 0-.3 8.4-.9 18.8-1.3 65.2-2.4 126.3-12.3 190.7-30.7 15.5-4.5 54.6-17.5 64-21.3 3.3-1.3 6.7-2.5 7.6-2.5 1.2-.1 18.9 37.8 67.5 144zm568.1-13.3c51.6 92.6 94.3 196.2 124.9 303.1 3.5 12.2 6.1 22.7 5.8 23.2-.9 1.4-32.8 29.3-46.9 40.9-68.7 56.5-141 105.1-223 149.5-23.6 12.8-75.9 38.5-76.7 37.7-.7-.8-156.8-342-157.4-344.2-.3-1.1 2.3-2.7 9.3-5.9 30.6-13.8 87.5-44.1 126.3-67.4 76.6-45.9 152-102 213.9-159l7.3-6.8 2 3.1c1 1.8 7.6 13.4 14.5 25.8zM1007.6 1150c43.1 94.3 78.6 172.2 78.9 173 .4 1.3-3.3 3-17.7 8.4-135.6 50.8-274.7 82.4-420.9 95.6-12.5 1.1-23.1 2-23.7 2-1.4 0-6.1-8.6-20.7-37.8-36-72.4-63.3-143.3-86.6-225.2-8.1-28.3-22.9-90.4-22.9-95.7 0-1.8 1.5-2 21.3-3.2 132.9-7.8 275.3-37.9 400.2-84.5 6.6-2.5 12.4-4.4 12.9-4.2.5.1 36.1 77.3 79.2 171.6zM135 1034.6c25.3 6.2 72.7 15.5 100.5 19.8 49.7 7.7 84.4 11 148 14.4l13 .7 1.2 6c13.2 64.7 25.1 111.4 42.3 165.4 18 56.5 44 122.1 68.5 172.8l9.4 19.3h-21.7c-74.9 0-164.8-7.9-242.2-21.1-33.4-5.7-79.8-15.3-81.3-16.8-1.4-1.4-16.4-39.5-23.7-60.3-33-93.4-49.8-185-53.6-292l-.6-18.7 10.8 3c6 1.6 19.2 5 29.4 7.5zm1412.3 132.6c.3 1.8 2.4 13.9 4.6 26.8 16.7 96.6 24.1 196.7 21.2 287.8-.6 20.6-1.4 37.9-1.8 38.4-.3.6-7.3 6.4-15.7 13-37.1 29.5-83.5 61.3-128.6 88.2-29.4 17.5-78.3 43.6-79.4 42.5-.8-.8-132.6-288.9-132.6-289.8 0-.4 10.2-5.6 22.7-11.6 106-51.3 211.7-118.8 297.2-189.9 5.7-4.7 10.7-8.6 11.1-8.6.4 0 1 1.5 1.3 3.2zm-353.4 390.3c36.5 79.7 66.3 145.3 66.4 145.8.4 1.7-44.4 18.8-80.8 30.9-71.3 23.7-149.4 42.1-222.6 52.4l-19.7 2.8-7.8-5.7c-89.3-64.4-171.5-148.9-239.1-245.7-9.9-14.3-11.9-17.6-10.5-18.1.9-.3 7.1-1.1 13.7-1.8 86.3-8.8 193.9-30.1 285-56.5 47.8-13.8 110.3-34.9 142-48 3.3-1.3 6.3-2.1 6.6-1.8.3.4 30.4 65.9 66.8 145.7zm599.7-112.8c-27.8 54.9-59.7 105.4-96.4 152.6-17.5 22.4-41 50.2-41.8 49.4-.2-.1 1-10.9 2.6-23.7 1.6-12.9 3.3-28.9 3.9-35.5 2-21.9.6-18.8 14.4-31.1 38.8-34.6 86.9-84.1 118.1-121.6 4.4-5.3 8.2-9.5 8.4-9.3.2.2-3.9 8.8-9.2 19.2zm-1539.1 63.8c40.5 6.4 85.6 11.7 127.5 14.9 45.8 3.6 60.6 4.1 123.6 4.1h64.1l6.9 11c59.2 94.8 131 181.2 208.8 251.1l9.9 8.9-6.4.3c-9.6.5-67.3-1.7-90.3-3.4-83.9-6.2-171.8-22.9-247.4-46.9-16.9-5.3-17-5.4-24.7-11.9-73.3-61.9-137.3-135.5-187-214.6-11.2-17.9-11.5-18.5-8.9-17.6 1 .3 11.8 2.1 23.9 4.1zm1300.6 160.2c-3.9 22.8-9 48-14.3 71.1l-4.2 18.4-6.1 4.7c-24.9 19.3-60.7 43.4-91.5 61.5l-14.5 8.5-1.3-2.7c-.7-1.5-9.1-19.8-18.6-40.7l-17.3-38 19.1-9.8c47.1-24.3 100.8-56.5 141.6-84.8 5.2-3.6 9.6-6.5 9.8-6.3.2.1-1 8.3-2.7 18.1zm-235.4 164c14.8 32.5 18.8 42 17.7 42.6-2.8 1.6-24.5 10.2-42.9 16.9-22 8-56.5 18.8-77.9 24.3l-14.8 3.9-13.2-4.3c-37.3-12.3-76.5-27.9-110.5-44.2l-15.3-7.3 6.3-1.4c17.9-3.8 65.1-15.8 85.4-21.6 43.7-12.6 91.8-29 129-44 8.8-3.6 16.3-6.5 16.6-6.6.3 0 9.1 18.8 19.6 41.7zm-388.2 67.2c20.4 12.7 46.2 27.7 66.5 38.6l12.5 6.7-30-.6c-61.8-1.2-110.6-6.7-169.5-19.2-33.5-7.1-79.5-20.1-107.5-30.4l-11-4.1 11.5.6c48.7 2.3 67.4 2.7 99 2.2 35.6-.6 60.9-1.8 88-4.2 8-.7 16.1-1.3 18-1.4 2.9-.1 7 2.1 22.5 11.8z" fill="#132576"/></svg>
